<svg aria-hidden="true" style="position: absolute; width: 0; height: 0; overflow: hidden;" version="1.1" xmlns="http://www.w3.org/2000/svg" xmlns:xlink="http://www.w3.org/1999/xlink">
<defs>

<symbol id="icon-Icon-computer" viewBox="0 0 32 32">
<path fill="#ef2a82" style="fill: var(--color1, #ef2a82)" d="M17.6 21.867h-3.2c-0.294 0-0.533 0.239-0.533 0.533s0.239 0.533 0.533 0.533h3.2c0.294 0 0.533-0.239 0.533-0.533s-0.239-0.533-0.533-0.533z"></path>
<path fill="#ef2a82" style="fill: var(--color1, #ef2a82)" d="M29.866 0.533h-27.732c-1.177 0-2.134 0.957-2.134 2.134v17.599c0 0.294 0.239 0.533 0.533 0.533h30.933c0.294 0 0.533-0.239 0.533-0.533v-17.599c0-1.177-0.957-2.134-2.134-2.134zM30.933 19.733h-29.867v-17.066c0-0.589 0.479-1.067 1.067-1.067h27.732c0.588 0 1.067 0.478 1.067 1.067v17.066z"></path>
<path fill="#ef2a82" style="fill: var(--color1, #ef2a82)" d="M31.467 19.733h-30.933c-0.294 0-0.533 0.239-0.533 0.533v2.666c0 1.177 0.957 2.134 2.134 2.134h27.732c1.177 0 2.134-0.957 2.134-2.134l-0-2.666c0-0.294-0.239-0.533-0.533-0.533zM30.933 22.933c0 0.589-0.479 1.067-1.067 1.067h-27.732c-0.588 0-1.067-0.478-1.067-1.067v-2.133h29.867l-0 2.133z"></path>
<path fill="#ef2a82" style="fill: var(--color1, #ef2a82)" d="M29.333 2.667h-26.667c-0.294 0-0.533 0.239-0.533 0.533v17.067c0 0.294 0.239 0.533 0.533 0.533h26.667c0.294 0 0.533-0.239 0.533-0.533v-17.067c0-0.294-0.239-0.533-0.533-0.533zM28.8 19.733h-25.6v-16h25.6v16z"></path>
<path fill="#ef2a82" style="fill: var(--color1, #ef2a82)" d="M22.933 28.267h-13.867c-0.882 0-1.6 0.718-1.6 1.6s0.718 1.6 1.6 1.6h13.867c0.882 0 1.6-0.718 1.6-1.6s-0.718-1.6-1.6-1.6zM22.933 30.4h-13.867c-0.294 0-0.533-0.239-0.533-0.533s0.239-0.533 0.533-0.533h13.867c0.294 0 0.533 0.239 0.533 0.533s-0.239 0.533-0.533 0.533z"></path>
<path fill="#ef2a82" style="fill: var(--color1, #ef2a82)" d="M21.867 28.267c-1.77 0-2.667-1.256-2.667-3.733 0-0.294-0.239-0.533-0.533-0.533h-5.333c-0.294 0-0.533 0.239-0.533 0.533 0 2.477-0.897 3.733-2.667 3.733-0.294 0-0.533 0.239-0.533 0.533s0.239 0.533 0.533 0.533h11.733c0.294 0 0.533-0.239 0.533-0.533s-0.239-0.533-0.533-0.533zM12.731 28.267c0.657-0.727 1.043-1.811 1.121-3.2h4.296c0.077 1.389 0.464 2.473 1.121 3.2h-6.538z"></path>
<path fill="#ef2a82" style="fill: var(--color1, #ef2a82)" d="M25.485 16.247l-1.287-1.287 0.716-0.716c0.133-0.133 0.186-0.326 0.14-0.508s-0.184-0.326-0.364-0.38l-5.333-1.6c-0.188-0.057-0.391-0.005-0.53 0.134s-0.19 0.342-0.134 0.53l1.6 5.333c0.054 0.18 0.198 0.318 0.38 0.364 0.181 0.045 0.375-0.008 0.508-0.14l0.754-0.755 1.287 1.288c0.1 0.1 0.236 0.156 0.377 0.156s0.277-0.056 0.377-0.156l1.508-1.509c0.209-0.208 0.209-0.546 0-0.754zM23.599 17.379l-1.172-1.173c-0.136-0.136-0.314-0.204-0.492-0.204s-0.357 0.068-0.492 0.203l-0.385 0.385-1.059-3.529 3.529 1.059-0.413 0.413c-0.114 0.114-0.176 0.266-0.176 0.427s0.063 0.314 0.177 0.427l1.237 1.237-0.754 0.755z"></path>
<path fill="#ef2a82" style="fill: var(--color1, #ef2a82)" d="M22.4 4.8h-14.933c-0.294 0-0.533 0.239-0.533 0.533v2.667c0 0.294 0.239 0.533 0.533 0.533h14.933c0.294 0 0.533-0.239 0.533-0.533v-2.667c0-0.294-0.239-0.533-0.533-0.533zM21.867 7.467h-13.867v-1.6h13.867v1.6z"></path>
<path fill="#ef2a82" style="fill: var(--color1, #ef2a82)" d="M13.867 10.667h-4.267c-0.294 0-0.533 0.239-0.533 0.533v2.133c0 0.294 0.239 0.533 0.533 0.533h4.267c0.294 0 0.533-0.239 0.533-0.533v-2.133c0-0.294-0.239-0.533-0.533-0.533zM13.333 12.8h-3.2v-1.067h3.2v1.067z"></path>
<path fill="#ef2a82" style="fill: var(--color1, #ef2a82)" d="M22.4 4.8h-14.933c-0.294 0-0.533 0.239-0.533 0.533v10.133c0 0.294 0.239 0.533 0.533 0.533h12.697c0.169 0 0.327-0.079 0.428-0.215s0.132-0.31 0.083-0.472l-0.675-2.251 2.248 0.675c0.162 0.049 0.337 0.018 0.471-0.083s0.215-0.259 0.215-0.428l-0-7.892c0-0.294-0.239-0.533-0.533-0.533zM21.867 12.509l-2.51-0.753c-0.188-0.057-0.391-0.005-0.53 0.134s-0.19 0.342-0.134 0.531l0.754 2.513h-11.446v-9.067h13.867v6.642z"></path>
</symbol>

<symbol id="icon-Icon-planning" viewBox="0 0 32 32">
<path fill="#ef2a82" style="fill: var(--color1, #ef2a82)" d="M25.199 3.579c-2.674-1.981-5.848-3.027-9.177-3.027-3.036 0-6.052 0.874-8.297 2.373v-2.373c0-0.305-0.247-0.552-0.552-0.552s-0.552 0.247-0.552 0.552v3.471c0 0.214 0.124 0.409 0.317 0.499s0.423 0.062 0.587-0.075c2.104-1.748 5.281-2.792 8.497-2.792 3.091 0 6.038 0.972 8.521 2.811 0.099 0.073 0.213 0.108 0.328 0.108 0.169 0 0.335-0.077 0.444-0.223 0.182-0.245 0.13-0.59-0.115-0.772z"></path>
<path fill="#ef2a82" style="fill: var(--color1, #ef2a82)" d="M31.448 6.621h-3.471c-0.214 0-0.408 0.124-0.499 0.318s-0.062 0.423 0.075 0.587c1.748 2.104 2.792 5.28 2.792 8.497 0 3.091-0.972 6.037-2.811 8.52-0.181 0.245-0.13 0.59 0.115 0.772 0.099 0.073 0.213 0.108 0.328 0.108 0.169 0 0.335-0.077 0.444-0.223 1.981-2.674 3.027-5.848 3.027-9.177 0-3.036-0.874-6.053-2.373-8.297h2.373c0.305 0 0.552-0.247 0.552-0.552s-0.247-0.552-0.552-0.552z"></path>
<path fill="#ef2a82" style="fill: var(--color1, #ef2a82)" d="M25.063 27.479c-0.194-0.090-0.422-0.062-0.587 0.075-2.104 1.748-5.281 2.792-8.497 2.792-3.092 0-6.038-0.972-8.521-2.811-0.245-0.181-0.59-0.13-0.772 0.115s-0.13 0.59 0.115 0.772c2.674 1.981 5.848 3.027 9.177 3.027 3.036 0 6.052-0.874 8.297-2.373v2.373c0 0.305 0.247 0.552 0.552 0.552s0.552-0.247 0.552-0.552v-3.471c0-0.214-0.124-0.409-0.317-0.499z"></path>
<path fill="#ef2a82" style="fill: var(--color1, #ef2a82)" d="M4.447 24.475c-1.748-2.104-2.792-5.28-2.792-8.497 0-3.091 0.972-6.037 2.811-8.52 0.181-0.245 0.13-0.59-0.115-0.772s-0.59-0.13-0.772 0.115c-1.981 2.674-3.027 5.848-3.027 9.177 0 3.036 0.874 6.052 2.373 8.297h-2.373c-0.305 0-0.552 0.247-0.552 0.552s0.247 0.552 0.552 0.552h3.471c0.214 0 0.408-0.124 0.499-0.317s0.062-0.423-0.075-0.587z"></path>
<path fill="#ef2a82" style="fill: var(--color1, #ef2a82)" d="M16.552 10.482c-0.001-0.305-0.248-0.551-0.552-0.551 0 0-0.001 0-0.001 0-0.305 0.001-0.551 0.248-0.551 0.553l0.013 5.517c0.001 0.305 0.248 0.551 0.552 0.551 0.001 0 0.001 0 0.001 0 0.305-0.001 0.551-0.248 0.551-0.553l-0.013-5.517z"></path>
<path fill="#ef2a82" style="fill: var(--color1, #ef2a82)" d="M16.013 15.448h-3.324c-0.305 0-0.552 0.247-0.552 0.552s0.247 0.552 0.552 0.552h3.324c0.305 0 0.552-0.247 0.552-0.552s-0.247-0.552-0.552-0.552z"></path>
<path fill="#ef2a82" style="fill: var(--color1, #ef2a82)" d="M16 4.414c-6.388 0-11.586 5.197-11.586 11.586s5.198 11.586 11.586 11.586c6.389 0 11.586-5.197 11.586-11.586s-5.197-11.586-11.586-11.586zM16 26.483c-5.78 0-10.483-4.702-10.483-10.483s4.702-10.483 10.483-10.483c5.78 0 10.483 4.702 10.483 10.483s-4.702 10.483-10.483 10.483z"></path>
<path fill="#ef2a82" style="fill: var(--color1, #ef2a82)" d="M8.276 15.448h-1.103c-0.305 0-0.552 0.247-0.552 0.552s0.247 0.552 0.552 0.552h1.103c0.305 0 0.552-0.247 0.552-0.552s-0.247-0.552-0.552-0.552z"></path>
<path fill="#ef2a82" style="fill: var(--color1, #ef2a82)" d="M24.828 15.448h-1.103c-0.305 0-0.552 0.247-0.552 0.552s0.247 0.552 0.552 0.552h1.103c0.305 0 0.552-0.247 0.552-0.552s-0.247-0.552-0.552-0.552z"></path>
<path fill="#ef2a82" style="fill: var(--color1, #ef2a82)" d="M16 23.172c-0.305 0-0.552 0.247-0.552 0.552v1.103c0 0.305 0.247 0.552 0.552 0.552s0.552-0.247 0.552-0.552v-1.103c0-0.305-0.247-0.552-0.552-0.552z"></path>
<path fill="#ef2a82" style="fill: var(--color1, #ef2a82)" d="M16 6.621c-0.305 0-0.552 0.247-0.552 0.552v1.103c0 0.305 0.247 0.552 0.552 0.552s0.552-0.247 0.552-0.552v-1.103c0-0.305-0.247-0.552-0.552-0.552z"></path>
<path fill="#ef2a82" style="fill: var(--color1, #ef2a82)" d="M10.873 21.127c-0.215-0.216-0.564-0.216-0.78 0l-0.725 0.724c-0.215 0.215-0.215 0.564 0 0.78 0.108 0.108 0.249 0.162 0.39 0.162s0.283-0.053 0.39-0.162l0.725-0.724c0.215-0.215 0.215-0.564 0-0.78z"></path>
<path fill="#ef2a82" style="fill: var(--color1, #ef2a82)" d="M22.632 9.368c-0.216-0.216-0.564-0.216-0.78 0l-0.724 0.724c-0.216 0.216-0.216 0.564 0 0.78 0.108 0.108 0.249 0.162 0.39 0.162s0.282-0.054 0.39-0.162l0.724-0.724c0.216-0.216 0.216-0.564 0-0.78z"></path>
<path fill="#ef2a82" style="fill: var(--color1, #ef2a82)" d="M22.632 21.852l-0.724-0.724c-0.216-0.216-0.564-0.216-0.78 0s-0.216 0.564 0 0.78l0.724 0.724c0.108 0.108 0.249 0.162 0.39 0.162s0.282-0.053 0.39-0.162c0.216-0.216 0.216-0.564 0-0.78z"></path>
<path fill="#ef2a82" style="fill: var(--color1, #ef2a82)" d="M10.873 10.093l-0.725-0.724c-0.215-0.216-0.564-0.216-0.78 0s-0.216 0.565 0 0.78l0.725 0.724c0.108 0.108 0.249 0.162 0.39 0.162s0.283-0.054 0.39-0.162c0.216-0.216 0.216-0.565 0-0.78z"></path>
</symbol>

<symbol id="icon-Icon-speed" viewBox="0 0 32 32">
<path fill="#ef2a82" style="fill: var(--color1, #ef2a82)" d="M21.36 12.76c-0.585 0.586-1.536 0.585-2.121 0s-0.584-1.536 0-2.121c0.585-0.585 1.536-0.585 2.121 0 0.208 0.208 0.546 0.208 0.754 0s0.208-0.546 0-0.754c-1-1-2.629-1-3.629 0s-1 2.629 0 3.629c0.5 0.5 1.158 0.75 1.815 0.75s1.315-0.25 1.814-0.75c0.208-0.208 0.208-0.546 0-0.754s-0.546-0.208-0.754 0z"></path>
<path fill="#ef2a82" style="fill: var(--color1, #ef2a82)" d="M10.167 12.475c-0.085-0.167-0.252-0.277-0.439-0.29l-4.487-0.299c-0.232-0.023-0.447 0.121-0.532 0.338l-3.234 8.266c-0.087 0.222-0.016 0.474 0.174 0.619 0.095 0.072 0.209 0.109 0.323 0.109 0.113 0 0.225-0.035 0.32-0.107l2.685-2.013 1.563 0.312c0.255 0.051 0.51-0.089 0.603-0.333 0.839-2.199 1.85-4.243 3.002-6.076 0.1-0.159 0.109-0.359 0.023-0.526zM6.308 18.276l-1.358-0.271c-0.148-0.029-0.303 0.006-0.425 0.096l-1.375 1.031 2.409-6.156 3.22 0.214c-0.928 1.571-1.757 3.276-2.471 5.085z"></path>
<path fill="#ef2a82" style="fill: var(--color1, #ef2a82)" d="M20.114 26.759l-0.299-4.487c-0.013-0.188-0.123-0.355-0.29-0.44s-0.367-0.077-0.526 0.023c-1.834 1.152-3.878 2.163-6.076 3.002-0.243 0.092-0.384 0.347-0.333 0.603l0.312 1.563-2.013 2.684c-0.143 0.191-0.142 0.453 0.002 0.643 0.103 0.135 0.261 0.211 0.425 0.211 0.065 0 0.131-0.012 0.195-0.036l8.266-3.234c0.216-0.085 0.353-0.3 0.338-0.532zM12.867 28.848l1.031-1.375c0.091-0.121 0.126-0.276 0.096-0.424l-0.271-1.357c1.81-0.715 3.515-1.543 5.085-2.471l0.215 3.219-6.156 2.409z"></path>
<path fill="#ef2a82" style="fill: var(--color1, #ef2a82)" d="M15.466 16h-3.593c-0.194 0-0.372 0.105-0.466 0.274l-4.51 8.104c-0.117 0.211-0.078 0.476 0.096 0.643 0.102 0.098 0.236 0.149 0.37 0.149 0.095 0 0.19-0.025 0.276-0.077l8.104-4.904c0.159-0.096 0.257-0.269 0.257-0.456v-3.2c0-0.294-0.239-0.533-0.533-0.533zM14.932 19.433l-6.127 3.708 3.38-6.074h2.747v2.366z"></path>
<path fill="#ef2a82" style="fill: var(--color1, #ef2a82)" d="M31.973 0.514c-0.022-0.26-0.228-0.466-0.487-0.487-0.177-0.014-17.739-1.24-25.34 18.67-0.075 0.197-0.028 0.419 0.121 0.567l2.536 2.536c0.119 0.119 0.285 0.173 0.452 0.151 0.166-0.024 0.311-0.124 0.392-0.271l2.541-4.613h2.745v2.373l-4.641 2.93c-0.137 0.087-0.227 0.231-0.245 0.392s0.038 0.322 0.153 0.436l2.536 2.536c0.102 0.102 0.238 0.156 0.377 0.156 0.064 0 0.128-0.011 0.19-0.035 19.911-7.602 18.685-25.164 18.67-25.34zM29.175 9.976c-1.871 4.63-6.154 10.925-15.932 14.758l-1.819-1.819 4.325-2.73c0.155-0.098 0.248-0.268 0.248-0.451v-3.2c0-0.294-0.239-0.533-0.533-0.533h-3.594c-0.195 0-0.373 0.106-0.467 0.276l-2.35 4.267-1.788-1.789c6.673-17.024 20.897-17.72 23.662-17.681 0.020 1.244-0.094 4.799-1.752 8.901z"></path>
<path fill="#ef2a82" style="fill: var(--color1, #ef2a82)" d="M9.135 23.554c-0.116-0.154-0.3-0.228-0.481-0.209 0.019-0.181-0.056-0.365-0.209-0.481-0.804-0.608-1.842-0.81-2.848-0.555-1.068 0.271-1.942 1-2.396 2l-3.153 6.937c-0.092 0.203-0.049 0.441 0.108 0.598 0.102 0.102 0.238 0.156 0.377 0.156 0.075 0 0.15-0.016 0.221-0.048l6.937-3.153c0.999-0.454 1.728-1.327 1.999-2.396 0.255-1.005 0.053-2.044-0.555-2.848zM8.656 26.14c-0.191 0.752-0.704 1.367-1.407 1.687l-5.642 2.565 2.565-5.643c0.319-0.703 0.935-1.216 1.687-1.407 0.198-0.050 0.397-0.075 0.593-0.075 0.332 0 0.657 0.071 0.953 0.209l-0.508 0.899c-0.118 0.208-0.082 0.47 0.087 0.639 0.17 0.17 0.431 0.205 0.639 0.087l0.899-0.508c0.219 0.47 0.268 1.014 0.133 1.546z"></path>
<path fill="#ef2a82" style="fill: var(--color1, #ef2a82)" d="M31.973 0.515c-0.022-0.26-0.228-0.466-0.487-0.487-0.208-0.017-5.152-0.391-10.966 2.287-0.158 0.072-0.271 0.219-0.302 0.39s0.025 0.348 0.148 0.471l8.458 8.458c0.101 0.101 0.237 0.156 0.377 0.156 0.031 0 0.063-0.003 0.094-0.008 0.172-0.031 0.317-0.143 0.39-0.302 2.679-5.814 2.304-10.758 2.287-10.966zM29.028 10.329l-7.357-7.357c4.256-1.797 7.983-1.92 9.257-1.899 0.021 1.275-0.099 4.991-1.9 9.256z"></path>
<path fill="#ef2a82" style="fill: var(--color1, #ef2a82)" d="M23.552 8.447c-1.793-1.793-4.711-1.793-6.505 0s-1.793 4.711 0 6.505c0.896 0.897 2.075 1.345 3.252 1.345s2.356-0.448 3.253-1.345c1.794-1.793 1.794-4.711 0-6.505zM22.798 14.198c-1.378 1.377-3.619 1.377-4.996 0s-1.378-3.619 0-4.996c0.688-0.688 1.593-1.033 2.498-1.033s1.809 0.345 2.498 1.033c1.377 1.377 1.377 3.619-0 4.996z"></path>
</symbol>
<symbol id="icon-logo-main" viewBox="0 0 32 32">
<path fill="#ef2a82" style="fill: var(--color2, #ef2a82)" d="M29.207 6.965c-2.883-4.206-7.723-6.965-13.207-6.965-8.837 0-16 7.163-16 16 0 1.286 0.152 2.536 0.438 3.734l8.148-8.148c0.781-0.781 2.047-0.781 2.828 0l6.586 6.586 11.207-11.207z"></path>
<path fill="#ef2a82" style="fill: var(--color2, #ef2a82)" d="M31.108 10.72l-11.694 11.694c-0.781 0.781-2.047 0.781-2.828 0l-6.586-6.586-7.973 7.973c2.737 4.892 7.969 8.199 13.973 8.199 8.837 0 16-7.163 16-16 0-1.85-0.314-3.627-0.892-5.28z"></path>
</symbol>

</defs>
</svg>
